<svg xmlns="http://www.w3.org/2000/svg" xmlns:xlink="http://www.w3.org/1999/xlink" viewBox="0 0 1125 1044.29"><defs><style>.cls-1{fill:#7f288f;opacity:0.24;}.cls-2{opacity:0.44;fill:url(#linear-gradient);}</style><linearGradient id="linear-gradient" x1="-66.8" y1="775.04" x2="1005.92" y2="-98.58" gradientUnits="userSpaceOnUse"><stop offset="0" stop-color="#7f288f"/><stop offset="1" stop-color="#452e91"/></linearGradient></defs><g id="Layer_2" data-name="Layer 2"><g id="Layer_1-2" data-name="Layer 1"><path class="cls-1" d="M1125,0V528.35a256.49,256.49,0,0,1-44.88,41.89c-60.64,44.2-120.17,45.81-181.61,46.36-65.64.57-133.47-.08-207.19,48.68-68.24,45.14-99.43,104.77-122,163.51-33,85.77-47.73,169.64-132.84,203.69-79.11,31.65-150.27-7.26-223.32-35.17C160.19,977.09,106.28,962.64,47.64,985A187.82,187.82,0,0,0,0,1011.73V0Z"/><path class="cls-2" d="M1125,0V248.26a309.68,309.68,0,0,0-66.48,36.86c-113.61,83-127.77,215.52-160,331.48-10.76,38.71-23.53,75.58-42.69,108.13-19.41,33-45.37,61.53-82.42,83.11-42.1,24.52-86,32.76-131.23,31.07-24-.9-48.3-4.59-72.89-10.12-163-36.69-337.86-154.38-500-77.11A277.24,277.24,0,0,0,0,798.94V0Z"/></g></g></svg>