<svg xmlns="http://www.w3.org/2000/svg" xmlns:xlink="http://www.w3.org/1999/xlink" viewBox="0 0 203.72 204.66"><defs><style>.cls-1{fill:url(#linear-gradient);}</style><linearGradient id="linear-gradient" x1="146.45" y1="13.29" x2="73.01" y2="223.89" gradientUnits="userSpaceOnUse"><stop offset="0" stop-color="#2e3192"/><stop offset="1" stop-color="#9d248e"/></linearGradient></defs><g id="Layer_2" data-name="Layer 2"><g id="Layer_1-2" data-name="Layer 1"><path class="cls-1" d="M201.55,175.42l-33.94-68.29,19.79-13a19.84,19.84,0,0,0,8.29-22.65c-.15-.49-.31-1-.48-1.43a19.77,19.77,0,0,0-18.86-13h-22l6.45,13,.5,1h15a6.19,6.19,0,0,1,3.38,11.36l-2.49,1.63L161.33,94.5l-1.52-3-3.65-7.36-6.46-13-.5-1-6.46-13L119.93,11.2a20.74,20.74,0,0,0-2.19-3.49h0a20.19,20.19,0,0,0-33.94,3.5L61,57.1H27.37a19.77,19.77,0,0,0-18.86,13c-.17.47-.33.94-.48,1.43a19.84,19.84,0,0,0,8.29,22.65l19.79,13L2.17,175.42a19.91,19.91,0,0,0,5,24.31,19.92,19.92,0,0,0,24.79,1.15l47-33.27,23,15,23-15,47,33.27a19.9,19.9,0,0,0,24.78-1.15A19.91,19.91,0,0,0,201.55,175.42ZM96.32,17.43a6.19,6.19,0,0,1,11.08,0L127.11,57.1H76.61ZM26.48,84.09,24,82.46A6.19,6.19,0,0,1,27.37,71.1h106.7l6.46,13,9,18.13-47.68,31.21L54.18,102.22,64.34,81.76l-15.61,0L42.39,94.5Zm161,105a6,6,0,0,1-7.59.35l-54.79-38.77L101.86,165.9,78.61,150.68,23.82,189.45a6,6,0,0,1-7.59-.35,6,6,0,0,1-1.52-7.45l33.2-66.8,54,35.31,54-35.31,33.2,66.8A6,6,0,0,1,187.49,189.1Z"/></g></g></svg>