<svg xmlns="http://www.w3.org/2000/svg" viewBox="0 0 410.7 202.91"><defs><style>.cls-1{fill:#1d1d1b;}</style></defs><g id="Layer_2" data-name="Layer 2"><g id="Algeria"><path class="cls-1" d="M0,0H45.18A40.39,40.39,0,0,1,59.05,2.34,35.43,35.43,0,0,1,70.26,8.79a30.91,30.91,0,0,1,7.51,9.6,26.11,26.11,0,0,1,2.74,11.78q0,9.19-4.44,15.41A29.14,29.14,0,0,1,65,55v1.29A31.44,31.44,0,0,1,79.3,66.39q5.4,6.85,5.4,17a29,29,0,0,1-3,13.31,30.85,30.85,0,0,1-8.15,10.09,37.22,37.22,0,0,1-12,6.45,46.77,46.77,0,0,1-14.76,2.26H0ZM43.56,47.11q7.59,0,11.7-4.11a13.36,13.36,0,0,0,4.11-9.76,13.19,13.19,0,0,0-4-9.68q-4-4-11.13-4H21.78V47.11ZM46,95.51q8.24,0,12.59-4.11a13.89,13.89,0,0,0,4.35-10.57A14.31,14.31,0,0,0,58.49,70.1q-4.44-4.27-13.15-4.27H21.78V95.51Z"/><path class="cls-1" d="M101.48,0h21.78V94.87h49.16l-5.28,20.65H101.48Z"/><path class="cls-1" d="M231.49,41.3h-22.3l9.52,26.62H188.38l16.89-47.27h18.46L216,0H191.12l-43.4,115.52h24l9.52-27.59h44.53l9.52,27.59h24Z"/><path class="cls-1" d="M367.22,34.36a51.4,51.4,0,0,0-11.86-18.31A53.29,53.29,0,0,0,336.65,4.19,68.89,68.89,0,0,0,312,0h-39V20.65H311a48.8,48.8,0,0,1,16.78,2.66,33,33,0,0,1,12.1,7.5,31,31,0,0,1,7.26,11.7,45.68,45.68,0,0,1,2.42,15.25A45.62,45.62,0,0,1,347.14,73a30.81,30.81,0,0,1-7.26,11.7,32.78,32.78,0,0,1-12.1,7.5A48.55,48.55,0,0,1,311,94.87H294.7V41.3H272.92v74.22h39a68.67,68.67,0,0,0,24.69-4.2,53.81,53.81,0,0,0,18.71-11.77,50.68,50.68,0,0,0,11.86-18.24,64.7,64.7,0,0,0,4.12-23.55A64.27,64.27,0,0,0,367.22,34.36Z"/><path class="cls-1" d="M388.92,0H410.7V115.52H388.92Z"/><rect class="cls-1" x="210.94" width="85.92" height="20.65"/><path class="cls-1" d="M8,202.91H0V140.47H8l21.72,38h.35l21.71-38h8v62.44h-8V165.85l.35-10.47H51.8L32.27,189.66H27.56L8,155.38H7.67L8,165.85Z"/><path class="cls-1" d="M135.33,202.91h-8.89L150,140.47h9.07l23.55,62.44h-8.9l-6-16.92H141.44Zm19-52.58-10.2,28.16H164.9l-10.21-28.16Z"/><path class="cls-1" d="M270.77,177.62v25.29h-8V140.47H284a19.21,19.21,0,0,1,13.78,5.41,18,18,0,0,1,0,26.42A19.2,19.2,0,0,1,284,177.62Zm0-29.47V170H284.2a10.61,10.61,0,0,0,7.94-3.23,10.94,10.94,0,0,0-7.94-18.57Z"/><polygon class="cls-1" points="410.47 187.71 410.26 187.28 409.92 186.59 409.91 186.58 409.7 186.13 409.49 185.7 409.41 185.6 409.31 185.55 409.19 185.51 408.23 185.19 407.5 184.95 406.93 184.76 406.86 184.74 406.8 184.75 406.46 184.88 406.11 185.01 405.99 185.02 405.94 185 405.54 184.68 405.48 184.61 405.44 184.5 405.39 184.19 405.33 184.1 404.88 183.83 404.85 183.75 404.84 183.28 404.83 182.81 404.81 182.37 404.77 182.16 404.66 181.95 404.2 181.3 403.83 180.78 403.37 180.13 402.94 179.54 402.87 179.35 402.94 179.19 402.99 179.14 403.04 179 403.15 178.91 403.17 178.86 403.18 178.8 403.19 178.73 404.25 178.22 404.31 178.15 404.44 177.72 404.43 177.65 404.4 177.55 404.4 177.43 404.48 177.07 404.47 177.03 404.42 176.98 404.29 176.91 404.25 176.88 404.22 176.81 404.17 176.46 403.91 175.55 403.91 175.49 403.92 175.44 403.97 175.31 404.01 175.1 404.06 175.03 404.19 174.89 404.21 174.82 404.18 174.75 404.14 174.68 404.13 174.6 404.2 174.55 404.29 174.5 404.34 174.44 404.54 173.75 404.55 173.72 404.56 173.59 404.12 172.42 404.08 172.22 404.23 171.01 404.3 170.44 404.29 169.78 404.23 169.25 403.99 168.42 403.75 167.59 403.39 166.91 403 166.33 402.85 166.15 402.67 165.93 402.6 165.81 403.3 165.42 403.21 165.04 403.13 164.65 403.04 164.27 402.96 163.88 402.87 163.49 402.79 163.11 402.7 162.72 402.61 162.33 402.53 161.94 402.44 161.55 402.36 161.16 402.27 160.77 402.19 160.38 402.1 159.99 402.01 159.6 401.93 159.21 401.92 159.17 401.87 158.92 401.83 158.85 401.79 158.8 401.28 158.43 400.65 157.97 400.17 157.62 399.8 157.38 399.71 157.29 399.71 157.29 399.67 157.17 399.64 156.8 399.6 156.29 399.56 156.18 399.25 155.7 398.97 155.25 398.9 155.21 398.84 155.22 398.77 155.22 398.71 155.2 398.65 155.17 398.32 154.93 398.21 154.89 398.06 154.87 397.95 154.84 397.88 154.75 397.83 154.59 397.82 154.11 397.82 154.09 397.78 153.95 397.55 153.54 397.36 153.21 397.33 153.11 397.3 152.93 397.21 152.76 397.19 152.69 397.15 152.49 397.13 152.35 397.2 151.99 397.21 151.72 397.25 151.62 397.31 151.55 397.44 151.42 397.51 151.32 397.59 151.24 397.71 151.18 397.9 151.15 397.96 151.12 398 151.07 398.02 151.01 398.14 150.58 398.2 150.45 398.32 150.37 398.58 150.25 398.7 150.16 398.99 150.03 399.02 150 399.14 149.89 399.21 149.85 399.24 149.82 399.25 149.8 399.27 149.74 399.29 149.71 399.4 149.64 399.42 149.6 399.34 149.47 399.35 149.41 399.39 149.36 399.49 149.26 399.49 149.25 399.51 149.22 399.52 149.17 399.46 148.8 399.46 148.66 399.49 148.52 399.56 148.32 399.62 148.05 399.65 147.92 399.8 147.76 399.98 147.48 400.01 147.41 399.91 147.32 399.78 147.28 399.67 147.23 399.6 147.1 399.58 146.94 399.58 146.81 399.62 146.68 399.72 146.42 399.73 146.31 399.7 146 399.69 145.88 399.63 145.76 399.49 145.52 399.45 145.39 399.44 145.23 399.45 144.93 399.52 144.7 399.53 144.66 399.54 144.45 399.6 144.17 399.64 144.11 399.67 144.04 399.66 143.97 399.63 143.9 399.62 143.83 399.63 143.68 399.78 143.27 399.78 143.25 399.79 143.2 399.79 143.05 399.79 142.97 399.76 142.91 399.72 142.88 399.66 142.86 399.6 142.83 399.34 142.8 399.21 142.75 399.21 142.74 399.22 142.62 399.29 142.53 399.38 142.47 399.57 142.4 399.94 142.18 400.01 142.1 400.08 141.97 400.1 141.84 400.04 141.76 399.94 141.7 399.95 141.64 400.05 141.6 400.17 141.58 400.28 141.59 400.38 141.57 400.59 141.49 400.65 141.45 400.65 141.4 400.55 141.24 400.54 141.2 400.54 141.16 400.53 141.06 400.53 141.06 400.21 141.19 400.11 141.2 400 141.19 399.96 141.17 399.92 141.13 399.88 141.12 399.84 141.14 399.78 141.11 399.71 141.1 399.58 141.11 399.52 141.08 399.47 141.02 399.41 140.99 398.99 141.2 398.93 141.25 398.86 141.29 398.43 141.4 398.3 141.38 398.13 141.33 398.02 141.24 398.02 141.24 398.08 141.14 398.02 141.09 398.04 141.01 398.07 140.93 398.1 140.85 398.07 140.88 398.01 140.94 397.98 140.95 397.84 140.97 397.81 140.94 397.79 140.91 397.76 140.89 397.72 140.88 397.69 140.87 397.66 140.88 397.63 140.89 397.6 140.9 397.46 140.87 397.37 140.8 397.27 140.7 397.17 140.62 397.11 140.64 397.06 140.67 397.04 140.65 397.01 140.64 396.95 140.64 396.91 140.63 396.89 140.61 396.88 140.56 396.85 140.53 396.85 140.52 396.84 140.51 396.8 140.51 396.73 140.56 396.7 140.56 396.67 140.56 396.61 140.52 396.58 140.51 396.57 140.51 396.56 140.52 396.53 140.55 396.51 140.56 396.5 140.56 396.49 140.54 396.48 140.54 396.47 140.54 396.44 140.53 396.39 140.5 396.36 140.49 396.33 140.49 396.27 140.51 396.23 140.51 396.23 140.54 396.32 140.61 396.44 140.74 396.46 140.77 396.46 140.81 396.45 140.85 396.43 140.89 396.41 140.94 396.39 140.95 396.35 140.97 396.22 141.09 396.19 141.12 396.16 141.15 396.09 141.15 396.01 141.13 395.96 141.11 395.88 141.16 395.61 141.24 395.53 141.24 395.41 141.23 395.32 141.2 395.32 141.14 395.29 141.09 395.24 141.05 395.19 141.02 395.15 141.01 394.69 140.98 394.63 140.96 394.57 140.93 394.52 140.91 394.48 140.93 394.43 140.87 394.39 140.72 394.36 140.69 394.33 140.69 394.32 140.67 394.31 140.64 394.31 140.6 394.29 140.6 394.18 140.51 394.06 140.47 393.92 140.47 393.79 140.51 393.69 140.56 393.66 140.59 393.61 140.64 393.49 140.74 393.47 140.76 393.43 140.83 393.43 140.89 393.44 140.95 393.44 141.03 393.41 141.07 393.38 141.13 393.26 141.2 392.77 141.38 392.27 141.5 392.14 141.5 391.93 141.46 391.86 141.46 391.79 141.49 391.68 141.58 391.62 141.61 391.49 141.65 391.44 141.68 391.38 141.73 391.34 141.79 391.3 141.92 391.24 141.97 391.12 142.02 391.1 142.03 391.06 142.08 391.05 142.09 390.95 142.09 390.94 142.1 390.77 142.15 390.56 142.18 390.45 142.17 390.35 142.15 390 141.96 389.91 141.9 389.9 141.84 389.96 141.65 389.9 141.66 389.84 141.65 389.78 141.63 389.73 141.6 389.72 141.59 389.69 141.54 389.67 141.52 389.64 141.52 389.6 141.52 389.56 141.51 389.55 141.49 389.49 141.43 389 141.22 388.94 141.21 388.73 141.24 388.5 141.22 388.41 141.22 388.38 141.22 388.28 141.27 388.24 141.25 388.14 141.25 388.11 141.23 388.08 141.2 388.03 141.18 387.99 141.17 387.95 141.16 387.59 141.21 387.54 141.2 387.46 141.17 387.41 141.16 387.37 141.18 387.29 141.23 387.25 141.24 387.21 141.23 387.14 141.2 387.1 141.19 387.06 141.2 386.94 141.27 386.88 141.24 386.74 141.22 386.71 141.21 386.61 141.22 386.54 141.24 386.51 141.24 386.46 141.23 386.36 141.16 386.24 141.14 386.1 141.16 385.84 141.24 385.74 141.31 385.56 141.49 385.45 141.55 385.42 141.55 385.35 141.54 385.32 141.55 385.3 141.57 385.28 141.59 385.26 141.62 385.23 141.63 385.17 141.63 385.05 141.67 384.99 141.68 384.63 141.66 384.51 141.63 384.32 141.53 384.28 141.54 384.28 141.63 384.27 141.69 384.23 141.74 384.14 141.8 384.12 141.8 384.02 141.8 383.9 141.76 383.82 141.69 383.74 141.6 383.64 141.54 383.55 141.53 383.53 141.52 383.39 141.55 383.22 141.68 383.14 141.76 383.13 141.81 383.05 141.92 382.97 141.99 382.77 142.09 382.49 142.32 382.39 142.35 381.96 142.38 381.93 142.37 381.87 142.35 381.83 142.35 381.8 142.34 381.79 142.31 381.78 142.28 381.76 142.25 381.7 142.21 381.64 142.19 381.57 142.2 381.51 142.22 380.76 142.45 380.49 142.48 380.46 142.48 380.31 142.45 380.14 142.46 379.98 142.5 379.94 142.5 379.88 142.49 379.85 142.48 379.82 142.49 379.75 142.53 379.72 142.53 379.67 142.54 379.12 142.57 378.99 142.6 378.92 142.61 378.85 142.59 378.72 142.54 378.67 142.53 378.6 142.54 378.43 142.63 378.36 142.66 378.3 142.66 378.17 142.66 378.09 142.67 377.97 142.74 377.91 142.76 377.69 142.76 377.57 142.84 377.44 142.87 377.39 142.89 377.36 142.93 377.35 142.96 377.34 142.99 377.33 143.02 377.29 143.05 377.22 143.1 377.19 143.14 377.14 143.17 376.96 143.22 376.86 143.3 376.81 143.32 376.77 143.32 376.54 143.34 376.48 143.36 376.43 143.39 376.38 143.44 376.33 143.49 376.21 143.52 375.99 143.68 375.95 143.72 375.9 143.75 375.83 143.76 375.69 143.77 375.62 143.79 375.57 143.82 375.55 143.85 375.54 143.94 375.53 143.97 375.5 143.99 375.44 144.03 375.42 144.06 375.39 144.08 375.19 144.15 375.14 144.19 375 144.34 374.97 144.36 374.94 144.38 374.92 144.4 374.91 144.42 374.9 144.46 374.88 144.55 374.77 144.78 374.74 144.88 374.64 145.1 374.54 145.19 374.42 145.28 374.28 145.35 374.19 145.37 374.16 145.38 374.09 145.37 373.96 145.31 373.75 145.27 373.67 145.23 373.62 145.17 373.61 145.13 373.63 145.08 373.62 145.04 373.6 145.03 373.56 145.02 373.53 145 373.52 144.96 373.48 144.93 373.39 144.96 373.27 145.02 373.24 145.02 373.18 145.02 373.14 145.02 373.13 145.01 373.12 145 373.1 144.99 373.08 145 373.08 145.01 373.08 145.04 373.09 145.06 373.09 145.07 373.09 145.11 372.95 145.41 372.93 145.43 372.9 145.45 372.87 145.45 372.82 145.44 372.79 145.44 372.75 145.55 372.7 145.59 372.64 145.62 372.58 145.63 372.47 145.64 372.44 145.63 372.41 145.6 372.4 145.57 372.38 145.54 372.35 145.53 372.31 145.53 372.25 145.51 372.22 145.51 372.18 145.5 372.16 145.47 372.13 145.44 372.11 145.43 372.04 145.45 371.96 145.58 371.85 145.65 371.81 145.66 371.8 145.65 371.78 145.62 371.74 145.61 371.67 145.63 371.63 145.66 371.58 145.71 371.52 145.74 371.41 145.77 371.39 145.79 371.35 145.85 371.26 145.94 371.19 145.99 371.16 146.01 371.08 146.13 371.06 146.14 370.99 146.15 370.96 146.16 370.94 146.2 370.83 146.48 370.79 146.54 370.76 146.6 370.73 146.78 370.7 146.85 370.67 146.9 370.62 146.95 370.56 146.99 370.5 147.01 370.43 147.11 370.42 147.12 370.41 147.12 370.39 147.13 370.31 147.16 370.03 147.19 369.97 147.21 369.61 147.51 369.58 147.58 369.55 147.6 369.36 147.67 369.26 147.79 369.21 147.82 369.17 147.83 369.08 147.83 369.05 147.83 368.98 147.89 368.69 147.97 368.64 148.01 368.62 148.02 368.59 148.02 368.52 147.99 368.33 148.02 368.23 148 368.12 147.95 368.01 147.93 367.93 147.97 367.92 147.96 367.91 147.95 367.89 147.95 367.88 147.94 367.81 147.97 367.82 148.11 367.85 148.21 367.9 148.28 367.99 148.32 368.11 148.4 368.2 148.49 368.3 148.56 368.44 148.57 368.48 148.6 368.49 148.64 368.49 148.69 368.51 148.75 368.55 148.79 368.71 148.9 368.81 148.99 369.13 149.19 369.18 149.25 369.17 149.28 369.13 149.31 369.06 149.47 368.9 149.72 368.88 149.78 369.24 150.16 369.35 150.19 369.38 150.21 369.06 150.6 369.18 150.74 369.25 150.91 369.47 151.58 369.48 151.63 369.49 151.68 369.48 151.75 369.34 152.34 369.33 152.51 369.36 152.69 369.39 152.79 369.38 152.83 369.36 152.89 369.33 152.93 369.3 152.96 369.27 152.99 369.25 153.05 369.27 153.11 369.32 153.14 369.42 153.18 369.48 153.22 369.51 153.26 369.64 153.59 369.66 153.71 369.62 153.8 369.57 153.87 369.52 154.07 369.48 154.16 369.44 154.26 369.44 154.61 369.47 154.73 369.63 154.88 369.68 154.98 369.72 155.1 369.78 155.19 369.86 155.26 369.95 155.32 370 155.37 370.02 155.45 370.02 155.53 370.01 155.61 370 155.65 369.99 155.68 369.97 155.71 369.95 155.74 369.82 155.83 370.23 156.52 370.33 156.6 370.52 156.67 371.37 157.32 371.41 157.41 371.24 157.6 371.14 157.68 371.02 157.73 370.9 157.75 370.85 157.77 370.8 157.84 370.77 157.9 370.73 158.03 370.68 158.35 370.68 158.4 370.68 158.43 370.67 158.46 370.65 158.49 370.64 158.51 370.59 158.55 370.57 158.57 370.59 158.63 370.64 158.63 370.75 158.59 370.81 158.59 370.87 158.61 370.92 158.65 370.93 158.73 370.87 158.85 370.76 158.88 370.53 158.87 370.5 158.87 370.43 158.87 370.31 158.86 370.16 158.85 369.98 158.84 369.77 158.84 369.54 158.82 369.29 158.81 369.03 158.8 368.77 158.79 368.5 158.78 368.24 158.76 367.99 158.75 367.75 158.74 367.54 158.73 367.34 158.72 366.93 158.7 366.39 158.85 365.82 158.9 365.65 159 365.86 159.56 365.99 159.9 365.46 159.98 364.98 160.12 364.8 160.18 363.92 160.34 363.81 160.35 363.68 160.32 363.47 160.43 363.43 161.34 363.21 161.36 363.04 161.48 363 161.53 362.99 161.59 363.01 161.86 363 161.94 362.94 162.05 362.92 162.12 362.93 162.18 362.96 162.21 363.02 162.21 363.07 162.19 363.16 162.1 363.2 162.08 363.26 162.09 363.3 162.14 363.38 162.27 363.44 162.33 363.54 162.38 363.58 162.41 363.61 162.48 363.62 162.54 363.63 162.61 363.79 162.87 363.62 163.14 363.47 163.29 363.49 163.51 363.51 163.73 362.94 164.03 362.44 164.15 361.97 164.18 361.61 164.27 361.32 164.44 360.98 164.89 360.56 165.23 360.12 165.42 359.8 165.59 359.55 165.79 359.21 166.08 358.89 166.3 358.59 166.62 358.38 167.03 358.11 167.47 357.79 167.88 357.5 167.98 357.24 167.88 357.14 167.57 356.76 167.62 356.4 167.69 356.02 167.69 355.57 167.69 355.36 167.71 355.15 167.74 354.71 167.86 354.29 167.91 354.03 168.15 353.5 167.93 353.17 167.91 352.93 167.93 352.6 168.08 352.32 168.37 351.98 168.35 351.92 168.37 351.85 168.38 351.78 168.38 351.65 168.35 351.51 168.35 351.4 168.39 351.22 168.58 351.17 168.62 351.03 168.69 350.84 168.87 350.52 169.09 350.25 169.35 350.15 169.42 349.81 169.57 349.6 169.71 349.4 169.91 349.35 169.94 349.24 169.98 349.2 170.02 349.09 170.21 349.06 170.25 348.92 170.32 348.78 170.43 348.4 170.64 348.34 170.69 348.31 170.76 348.29 170.85 348.29 171.01 348.29 171.21 348.29 171.42 348.29 171.62 348.29 171.83 348.29 172.04 348.29 172.24 348.29 172.45 348.29 172.65 348.29 172.86 348.29 173.06 348.29 173.27 348.29 173.47 348.29 173.68 348.29 173.88 348.29 174.09 348.29 174.29 348.29 174.61 348.29 174.93 348.29 175.25 348.29 175.57 348.89 175.97 349.49 176.36 350.09 176.76 350.69 177.15 351.29 177.55 351.88 177.94 352.48 178.33 353.08 178.72 353.68 179.12 354.27 179.51 354.87 179.9 355.47 180.29 355.98 180.62 356.48 180.95 356.99 181.28 357.42 181.57 357.5 181.62 357.86 181.85 358.39 182.21 358.91 182.57 359.44 182.93 359.96 183.28 359.96 183.28 359.96 183.28 359.96 183.28 360.19 183.44 360.42 183.6 360.65 183.76 360.88 183.92 361.22 184.16 361.46 184.34 361.7 184.51 361.94 184.68 362.18 184.85 362.42 185.03 362.67 185.2 362.91 185.37 363.15 185.55 363.39 185.72 363.63 185.89 363.87 186.06 364.11 186.24 364.35 186.41 364.59 186.58 364.83 186.75 365.07 186.93 365.34 187.11 365.6 187.3 365.86 187.49 366.12 187.68 366.38 187.86 366.64 188.05 366.91 188.24 367.17 188.42 367.43 188.61 367.69 188.79 367.95 188.98 368.22 189.17 368.48 189.35 368.74 189.54 369 189.73 369.26 189.91 369.52 190.1 369.79 190.28 370.05 190.47 370.31 190.66 370.57 190.84 370.83 191.03 371.1 191.21 371.36 191.4 371.62 191.58 371.88 191.77 372.14 191.95 372.4 192.14 372.67 192.32 372.93 192.51 373.19 192.69 373.45 192.88 373.71 193.06 373.98 193.25 374.24 193.43 374.5 193.62 374.54 193.65 374.76 193.8 375.02 193.99 375.29 194.17 375.55 194.35 375.81 194.54 376.07 194.72 376.33 194.91 376.6 195.09 376.86 195.27 377.12 195.46 377.38 195.64 377.64 195.82 378 196.07 378.04 196.14 378.09 196.35 378.1 196.42 378.06 196.77 377.99 197.06 377.99 197.13 378 197.21 378.02 197.25 378.06 197.26 378.13 197.27 378.2 197.27 378.32 197.25 378.38 197.25 378.45 197.26 378.49 197.3 378.56 197.41 378.6 197.47 378.65 197.51 378.78 197.55 378.91 197.57 378.96 197.59 379.01 197.62 379.13 197.64 379.25 197.7 379.44 197.85 379.5 197.94 379.52 198.06 379.52 198.3 379.55 198.35 379.9 198.65 379.97 198.68 380.03 198.68 380.09 198.68 380.14 198.68 380.19 198.72 380.21 198.78 380.22 198.84 380.25 198.88 380.31 198.88 380.35 198.87 380.4 198.82 380.44 198.81 380.48 198.81 380.5 198.83 380.52 198.85 380.56 198.87 380.75 198.94 380.79 198.94 380.87 198.91 380.99 198.79 381.06 198.74 381.13 198.73 381.18 198.75 381.24 198.78 381.42 198.93 381.53 199.05 381.63 199.19 381.75 199.41 381.79 199.45 381.83 199.46 381.9 199.48 381.96 199.5 382.07 199.56 382.13 199.58 382.16 199.58 382.44 199.63 382.61 199.64 383.43 199.82 383.82 199.99 383.99 200.13 384.04 200.15 384.15 200.18 384.2 200.21 384.24 200.25 384.25 200.29 384.2 200.94 384.2 201.06 384.24 201.18 384.25 201.2 384.27 201.21 384.29 201.22 384.3 201.25 384.3 201.27 384.28 201.33 384.28 201.36 384.31 201.42 384.35 201.47 384.38 201.52 384.39 201.59 384.36 201.66 384.3 201.71 384.24 201.74 384.18 201.79 384.15 201.85 384.14 201.97 384.12 202.03 384.06 202.1 384.02 202.12 384 202.15 383.98 202.22 383.94 202.29 383.91 202.34 383.91 202.4 383.96 202.47 384.02 202.53 384.08 202.57 384.14 202.61 384.28 202.67 384.46 202.85 384.53 202.89 384.56 202.91 384.6 202.91 384.68 202.91 384.93 202.85 384.93 202.85 385.24 202.79 385.76 202.68 385.99 202.64 386.28 202.58 386.79 202.48 387.31 202.38 387.88 202.26 388.45 202.15 389.02 202.03 389.59 201.92 389.89 201.85 390.55 201.72 391.21 201.59 391.52 201.53 391.91 201.45 392.04 201.39 392.17 201.3 392.41 201.09 392.6 200.91 392.79 200.74 392.98 200.56 393.17 200.39 393.36 200.22 393.55 200.04 393.74 199.87 393.94 199.69 394.13 199.52 394.32 199.34 394.51 199.17 394.7 198.99 394.89 198.82 395.08 198.65 395.27 198.47 395.46 198.29 395.63 198.13 395.75 198.03 395.98 197.83 396.2 197.64 396.41 197.45 396.63 197.26 396.84 197.08 397.14 196.81 397.54 196.56 397.75 196.44 397.95 196.31 398.16 196.18 398.36 196.04 398.57 195.91 398.77 195.78 398.98 195.66 399.18 195.53 399.39 195.4 399.6 195.26 399.8 195.13 400.01 195 400.21 194.87 400.42 194.74 400.62 194.61 400.83 194.48 401.04 194.35 401.24 194.22 401.45 194.09 401.65 193.96 401.86 193.83 402.06 193.7 402.27 193.57 402.48 193.44 402.68 193.31 402.89 193.18 403.09 193.05 403.3 192.92 403.5 192.78 403.71 192.65 403.92 192.52 404.12 192.39 404.33 192.26 404.53 192.13 404.74 192 404.94 191.87 405.15 191.74 405.35 191.61 405.56 191.47 405.76 191.34 405.97 191.21 406.18 191.08 406.38 190.95 406.59 190.82 406.79 190.69 407 190.56 407.2 190.42 407.41 190.29 407.62 190.16 407.82 190.03 408.03 189.9 408.23 189.76 408.44 189.63 408.64 189.5 408.85 189.37 409.06 189.24 409.26 189.11 409.47 188.97 409.67 188.84 409.88 188.71 410.08 188.58 410.29 188.45 410.5 188.31 410.7 188.18 410.47 187.71"/></g></g></svg>