<svg xmlns="http://www.w3.org/2000/svg" viewBox="0 0 2358 2260.38"><g id="Layer_2" data-name="Layer 2"><g id="Layer_1-2" data-name="Layer 1"><path d="M-6272.92-7659.92c0,121.36-124.58,221.56-160.13,331.06-36.85,113.5,3.76,267.53-65,362-69.44,95.42-228.95,104.06-324.37,173.5-94.47,68.75-151.6,218.18-265.1,255-109.5,35.55-243.05-50.59-364.41-50.59s-254.91,86.14-364.41,50.59c-113.5-36.85-170.63-186.28-265.1-255-95.42-69.44-254.93-78.08-324.37-173.5-68.75-94.47-28.14-248.5-65-362-35.55-109.5-160.13-209.7-160.13-331.06s124.58-221.56,160.13-331.06c36.85-113.5-3.76-267.53,65-362,69.44-95.42,228.95-104.06,324.37-173.5,94.47-68.75,151.6-218.18,265.1-255,109.5-35.55,243.05,50.59,364.41,50.59s254.91-86.14,364.41-50.59c113.5,36.85,170.63,186.28,265.1,255C-6727-8457-6567.48-8448.4-6498-8353c68.75,94.47,28.14,248.5,65,362C-6397.5-7881.48-6272.92-7781.28-6272.92-7659.92Z" transform="translate(8630.92 8790.11)"/></g></g></svg>